<?xml version="1.0" encoding="iso-8859-1"?>
<!-- Generator: Adobe Illustrator 19.0.0, SVG Export Plug-In . SVG Version: 6.00 Build 0)  -->
<svg version="1.1" id="Capa_1" xmlns="http://www.w3.org/2000/svg" xmlns:xlink="http://www.w3.org/1999/xlink" x="0px" y="0px"
	 viewBox="0 0 512 512" style="enable-background:new 0 0 512 512;" xml:space="preserve">
<rect x="15" y="45" style="fill:#E1F1FA;" width="482" height="301"/>
<rect x="256" y="45" style="fill:#BFE1FF;" width="241" height="301"/>
<path style="fill:#0053BF;" d="M359.5,430.401l-30-61C326.8,364.3,321.7,361,316,361H196c-5.7,0-10.8,3.3-13.5,8.401l-30,61
	c-2.1,4.499-2.1,10.199,0.601,14.399c2.999,4.499,7.8,7.2,12.9,7.2h180c5.099,0,9.901-2.701,12.9-7.2
	C361.601,440.6,361.601,434.9,359.5,430.401z"/>
<path style="fill:#05377F;" d="M359.5,430.401c2.1,4.499,2.1,10.199-0.601,14.399c-2.999,4.499-7.8,7.2-12.9,7.2h-90v-91h60
	c5.7,0,10.8,3.3,13.5,8.401L359.5,430.401z"/>
<g>
	<path style="fill:#65B1FC;" d="M256,121c-24.901,0-45,20.099-45,45v60c0,24.901,20.099,45,45,45s45-20.099,45-45v-60
		C301,141.099,280.901,121,256,121z M271,226c0,8.401-6.599,15-15,15s-15-6.599-15-15v-60c0-8.401,6.599-15,15-15s15,6.599,15,15
		V226z"/>
	<path style="fill:#65B1FC;" d="M166,151c-8.291,0-15,6.709-15,15v15h-15c-8.276,0-15-6.724-15-15v-30c0-8.291-6.709-15-15-15
		s-15,6.709-15,15v30c0,24.814,20.186,45,45,45h15v45c0,8.291,6.709,15,15,15s15-6.709,15-15v-90C181,157.709,174.291,151,166,151z"
		/>
</g>
<path style="fill:#1689FC;" d="M406,151c-8.291,0-15,6.709-15,15v15h-15c-8.276,0-15-6.724-15-15v-30c0-8.291-6.709-15-15-15
	s-15,6.709-15,15v30c0,24.814,20.186,45,45,45h15v45c0,8.291,6.709,15,15,15s15-6.709,15-15v-90C421,157.709,414.291,151,406,151z"
	/>
<path style="fill:#0053BF;" d="M464.299,30h-421.7L0,60v271l49.799,30h403.7l58.5-30V60L464.299,30z M482,331H30V60h452V331z"/>
<path style="fill:#1689FC;" d="M301,166v60c0,24.901-20.099,45-45,45v-30c8.401,0,15-6.599,15-15v-60c0-8.401-6.599-15-15-15v-30
	C280.901,121,301,141.099,301,166z"/>
<polygon style="fill:#05377F;" points="512,60 512,331 453.5,361 256,361 256,331 482,331 482,60 256,60 256,30 464.299,30 "/>
<path style="fill:#2864F0;" d="M467,0H45C20.099,0,0,20.099,0,45v15h512V45C512,20.099,491.901,0,467,0z"/>
<path style="fill:#0053BF;" d="M512,45v15H256V0h211C491.901,0,512,20.099,512,45z"/>
<g>
	<path style="fill:#2864F0;" d="M0,331v15c0,24.901,20.099,45,45,45h422c24.901,0,45-20.099,45-45v-15H0z"/>
	<path style="fill:#2864F0;" d="M346,422H166c-20.4,0-39,7.8-52.8,21.899C98.8,458,91,476.6,91,497c0,8.401,6.599,15,15,15h300
		c8.401,0,15-6.599,15-15C421,455.6,387.4,422,346,422z"/>
</g>
<g>
	<path style="fill:#0053BF;" d="M421,497c0,8.401-6.599,15-15,15H256v-90h90C387.4,422,421,455.6,421,497z"/>
	<path style="fill:#0053BF;" d="M256,331h256v15c0,24.901-20.099,45-45,45H256V331z"/>
</g>
<g>
</g>
<g>
</g>
<g>
</g>
<g>
</g>
<g>
</g>
<g>
</g>
<g>
</g>
<g>
</g>
<g>
</g>
<g>
</g>
<g>
</g>
<g>
</g>
<g>
</g>
<g>
</g>
<g>
</g>
</svg>
