<svg xmlns="http://www.w3.org/2000/svg" width="1792" height="1792"><rect id="backgroundrect" width="100%" height="100%" x="0" y="0" fill="none" stroke="none"/><g class="currentLayer" style=""><title>Layer 1</title><path d="M1600.7142857313156,1696 v64 q0,13 -9.5,22.5 t-22.5,9.5 h-1344 q-13,0 -22.5,-9.5 t-9.5,-22.5 v-64 q0,-13 9.5,-22.5 t22.5,-9.5 h1344 q13,0 22.5,9.5 t9.5,22.5 zm-256,-1056 q0,78 -24.5,144 t-64,112.5 t-87.5,88 t-96,77.5 t-87.5,72 t-64,81.5 t-24.5,96.5 q0,96 67,224 l-4,-1 l1,1 q-90,-41 -160,-83 t-138.5,-100 t-113.5,-122.5 t-72.5,-150.5 t-27.5,-184 q0,-78 24.5,-144 t64,-112.5 t87.5,-88 t96,-77.5 t87.5,-72 t64,-81.5 t24.5,-96.5 q0,-94 -66,-224 l3,1 l-1,-1 q90,41 160,83 t138.5,100 t113.5,122.5 t72.5,150.5 t27.5,184 z" id="svg_1" class="selected" fill-opacity="1" fill="#3c9ced"/></g></svg>