<?xml version="1.0" standalone="no"?>
<!DOCTYPE svg PUBLIC "-//W3C//DTD SVG 20010904//EN"
 "http://www.w3.org/TR/2001/REC-SVG-20010904/DTD/svg10.dtd">
<svg version="1.0" xmlns="http://www.w3.org/2000/svg"
 width="249.000000pt" height="75.000000pt" viewBox="0 0 249.000000 75.000000"
 preserveAspectRatio="xMidYMid meet">

<g transform="translate(0.000000,75.000000) scale(0.100000,-0.100000)"
fill="#000000" stroke="none">
<path d="M295 716 c-71 -18 -124 -48 -171 -98 -167 -173 -117 -447 101 -554
52 -25 71 -29 145 -29 70 0 95 5 141 27 151 70 233 230 200 390 -38 183 -238
310 -416 264z m140 -180 c38 -16 38 -17 29 -40 -5 -13 -17 -14 -63 -9 -49 5
-59 3 -64 -12 -10 -23 -2 -32 46 -56 70 -36 87 -56 87 -109 0 -53 -17 -75 -71
-90 -62 -18 -149 23 -133 64 8 20 33 20 58 1 24 -18 58 -19 74 -3 24 24 12 47
-40 75 -72 39 -94 72 -82 120 15 62 87 89 159 59z"/>
<path d="M1140 380 l0 -161 23 3 c17 2 23 11 27 38 7 50 30 48 65 -5 33 -49
37 -52 55 -30 9 11 6 23 -19 59 -17 24 -31 48 -31 52 0 4 12 20 26 35 25 27
26 49 0 49 -6 0 -30 -18 -51 -41 l-40 -40 -5 98 c-5 92 -6 98 -27 101 l-23 3
0 -161z"/>
<path d="M1574 527 c-2 -7 -3 -78 -2 -157 3 -142 4 -145 26 -148 l22 -3 0 160
c0 155 -1 161 -20 161 -11 0 -23 -6 -26 -13z"/>
<path d="M940 517 c-13 -7 -29 -25 -34 -40 -15 -43 3 -78 55 -107 64 -35 79
-49 79 -75 0 -36 -59 -48 -96 -20 -30 23 -46 19 -42 -12 6 -54 122 -69 169
-22 22 22 26 94 6 120 -7 9 -36 28 -65 43 -29 15 -55 33 -59 42 -13 35 51 58
97 34 13 -7 21 -5 31 6 11 14 10 18 -6 30 -23 17 -102 18 -135 1z"/>
<path d="M1897 503 c-4 -3 -7 -60 -7 -125 0 -105 2 -120 20 -138 27 -27 103
-29 98 -3 -2 11 -15 20 -33 23 -29 5 -30 8 -33 62 l-3 57 33 3 c47 4 51 35 6
40 -31 3 -33 5 -36 46 -2 32 -7 42 -21 42 -10 0 -21 -3 -24 -7z"/>
<path d="M1375 395 c-20 -20 -25 -34 -25 -78 0 -59 21 -90 72 -102 33 -8 98
12 98 30 0 21 -16 26 -44 14 -34 -16 -76 2 -76 31 0 18 6 20 59 20 66 0 77 10
60 60 -13 37 -36 50 -84 50 -25 0 -43 -8 -60 -25z m90 -21 c23 -24 13 -39 -28
-42 -31 -3 -37 0 -37 15 0 40 37 55 65 27z"/>
<path d="M1698 390 c-28 -28 -30 -35 -26 -82 6 -59 28 -83 83 -94 38 -7 90 14
90 36 0 15 -7 15 -66 3 -26 -5 -44 9 -51 37 -2 12 11 16 57 20 59 5 60 6 63
36 2 25 -3 37 -24 53 -40 31 -89 28 -126 -9z m96 -22 c20 -28 8 -40 -34 -36
-39 4 -48 19 -25 42 22 22 41 20 59 -6z"/>
<path d="M2066 389 c-38 -45 -37 -110 3 -150 37 -37 79 -38 119 -4 37 31 48
73 32 120 -15 44 -44 65 -91 65 -29 0 -43 -7 -63 -31z m92 -21 c20 -20 15 -96
-6 -107 -30 -16 -62 13 -62 54 0 51 39 82 68 53z"/>
<path d="M2277 413 c-4 -3 -7 -48 -7 -100 0 -93 0 -93 25 -93 24 0 25 2 25 68
0 66 10 92 36 92 30 0 44 -31 44 -96 0 -62 1 -64 25 -64 24 0 25 2 25 74 0 59
-4 78 -21 100 -22 28 -56 34 -92 15 -16 -9 -22 -9 -25 0 -4 12 -25 15 -35 4z"/>
</g>
</svg>
